<svg width="460" height="449" viewBox="0 0 460 449" fill="none" xmlns="http://www.w3.org/2000/svg">
<path d="M446.637 0C453.969 0.000222251 459.913 5.94486 459.913 13.2773V126.131C459.913 133.463 453.969 139.407 446.637 139.407H376.941V382.574C376.941 391.707 369.537 399.111 360.404 399.111H118.61V440.389C118.61 445.145 114.754 449 109.998 449H38.2334C33.4774 449 29.6223 445.145 29.6221 440.389V367.188C29.6221 362.432 33.4772 358.576 38.2334 358.576H68.9414V165.501H13.2773C5.94489 165.501 0.000261102 159.557 0 152.225V39.3711C0 32.0385 5.94473 26.0938 13.2773 26.0938H123.918C131.25 26.094 137.194 32.0386 137.194 39.3711V58.1113H322.719V13.2773C322.719 5.94473 328.663 0 335.996 0H446.637Z" fill="#D9D9D9"/>
</svg>
