<svg width="358" height="253" viewBox="0 0 358 253" fill="none" xmlns="http://www.w3.org/2000/svg">
<path fill-rule="evenodd" clip-rule="evenodd" d="M272.327 0C277.114 0.000173946 280.995 3.88087 280.995 8.66797V78.7676H348.138C355.499 78.7676 357.339 83.8797 357.339 86.4355V163.111C357.339 169.859 352.739 172.568 350.439 173.079H286.797C284.691 173.079 282.761 173.304 280.995 173.708V201.536C280.995 206.323 277.114 210.204 272.327 210.204H263.795V243.621C263.795 249.142 259.705 251.544 257.661 252.056C234.403 252.056 187.582 251.902 186.352 251.289C185.125 250.676 183.285 248.988 182.518 248.222C172.78 238.37 158.334 223.853 144.572 210.204H93.8854C93.9535 223.993 93.9073 236.986 93.5738 241.321C92.9604 249.295 89.2293 252.311 87.44 252.822H8.46348C1.10259 252.822 -0.22668 246.177 0.0289067 242.854V165.412C0.0289067 160.505 4.63002 158.766 6.93027 158.511H52.732V8.66797C52.7322 3.88078 56.6128 3.87921e-05 61.4 0H272.327Z" fill="#DFBBFF" fill-opacity="0.5"/>
</svg>
