<svg width="457" height="444" viewBox="0 0 457 444" fill="none" xmlns="http://www.w3.org/2000/svg">
<path d="M413.477 0C421.067 0.000203742 427.221 6.15357 427.221 13.7441V76.7393C427.221 84.3299 421.067 90.4832 413.477 90.4834H388.278V265.725H443.256C450.847 265.725 457 271.878 457 279.469V388.278C457 395.869 450.847 402.022 443.256 402.022H328.72C321.129 402.022 314.975 395.869 314.975 388.278V358.499H134.008V429.512C134.008 437.102 127.853 443.256 120.263 443.256H13.7441C6.1536 443.256 0.000243057 437.102 0 429.512V322.992C0.000160439 315.402 6.15354 309.248 13.7441 309.248H80.1758V60.7041C80.1759 53.1134 86.3292 46.96 93.9199 46.96H336.737V13.7441C336.737 6.15345 342.891 0 350.481 0H413.477Z" fill="#D9D9D9" fill-opacity="0.5"/>
</svg>
