<svg width="80" height="80" viewBox="0 0 80 80" fill="none" xmlns="http://www.w3.org/2000/svg">
<path d="M54.2138 18.4358V21.7902C54.2138 22.0582 54.001 22.2734 53.7354 22.2734H50.4162C50.157 22.2734 49.9434 22.0582 49.9434 21.7902V18.4358C49.9434 18.1678 50.1562 17.9526 50.4162 17.9526H53.7354C54.0002 17.9526 54.2138 18.1678 54.2138 18.4358Z" fill="white"/>
<path d="M61.0433 24.806V29.2428C61.0433 29.5108 60.8241 29.726 60.5649 29.726H56.1737C55.9089 29.726 55.6953 29.5108 55.6953 29.2428V24.806C55.6953 24.538 55.9081 24.3228 56.1737 24.3228H60.5649C60.8241 24.3228 61.0433 24.538 61.0433 24.806Z" fill="white"/>
<path d="M68.3881 21.1318H62.7929C62.5281 21.1318 62.3145 20.9166 62.3145 20.6542V14.9998C62.3145 14.7318 62.5273 14.5166 62.7929 14.5166H68.3881C68.6473 14.5166 68.8609 14.7318 68.8609 14.9998V20.6542C68.8609 20.9166 68.6473 21.1318 68.3881 21.1318Z" fill="white"/>
<path d="M72.4329 28.8064V34.344C72.4329 34.612 72.2137 34.8272 71.9545 34.8272H66.4689C66.2097 34.8272 65.9961 34.612 65.9961 34.344V28.8064C65.9961 28.5384 66.2089 28.3232 66.4689 28.3232H71.9545C72.2137 28.3232 72.4329 28.5384 72.4329 28.8064Z" fill="white"/>
<path d="M58.7488 35.0838V37.7214C58.7488 37.9894 58.536 38.2046 58.2704 38.2046H55.66C55.3952 38.2046 55.1816 37.9894 55.1816 37.7214V35.0838C55.1816 34.8158 55.3944 34.6006 55.66 34.6006H58.2704C58.5352 34.6006 58.7488 34.8158 58.7488 35.0838Z" fill="white"/>
<path d="M54.6591 41.7324L54.6407 45.0364L49.7527 45.0028C48.8687 44.9996 48.1823 44.7756 47.6911 44.3372C47.1951 43.8964 46.9543 43.2396 46.9591 42.3668L47.0183 33.8364C47.0199 33.694 46.9031 33.5772 46.7607 33.5756L44.3959 33.5588C44.2519 33.5572 44.1367 33.4404 44.1367 33.2964L44.1591 30.6092C44.1591 30.4668 44.2775 30.35 44.4199 30.3516L45.2263 30.3564C46.2255 30.3628 47.0423 29.5564 47.0511 28.5572L47.0647 25.4476C47.0663 25.3052 47.1831 25.1884 47.3255 25.19L50.9055 25.21C51.0495 25.2116 51.1663 25.3284 51.1647 25.4724L51.1407 30.2084C51.1391 30.3508 51.0223 30.4676 50.8799 30.466L47.3695 30.4476C47.2271 30.446 47.1103 30.5628 47.1087 30.7052L47.0919 33.2396C47.0903 33.382 47.2071 33.4988 47.3495 33.5004L50.8615 33.5244C51.0039 33.526 51.1207 33.6428 51.1191 33.7852L51.0719 41.45C51.0703 41.5924 51.1871 41.7092 51.3295 41.7108L54.6599 41.7332L54.6591 41.7324Z" fill="white"/>
<path d="M29.343 46.5644L29.2227 65.2056L33.0386 65.2302L33.159 46.589L29.343 46.5644Z" fill="white"/>
<path d="M67.0344 56.4763L66.9752 65.4507L62.8448 65.4235L62.8976 57.1867C62.9024 56.4043 62.764 55.7587 62.4792 55.2467C62.1944 54.7347 61.7832 54.3507 61.244 54.0931C60.7056 53.8355 60.0584 53.7035 59.3024 53.6987C58.3296 53.6923 57.4776 53.9003 56.7456 54.3235C56.0544 54.7219 55.4952 55.2235 55.068 55.8259C55.0168 55.8955 54.9936 55.9803 54.992 56.0651L54.9328 65.3731L50.8008 65.3459L50.892 51.2251C50.8936 50.9931 51.0816 50.8083 51.3136 50.8099L54.2256 50.8283C54.424 50.8299 54.5952 50.9691 54.6336 51.1635L54.984 52.9339C55.104 52.9339 55.2176 52.8811 55.2992 52.7931C55.9128 52.1187 56.6664 51.5899 57.5608 51.2043C58.5184 50.7923 59.5904 50.5891 60.78 50.5979C62.1472 50.6067 63.2976 50.8451 64.2312 51.3163C65.1632 51.7859 65.8664 52.4547 66.3368 53.3203C66.8096 54.1875 67.04 55.2395 67.0328 56.4763H67.0344Z" fill="white"/>
<path d="M36.1472 45.1328C34.7528 45.1328 33.524 44.836 32.46 44.2432C31.396 43.6496 30.5672 42.812 29.9736 41.7288C29.38 40.6456 29.084 39.3696 29.084 37.9008V37.5616C29.084 36.0928 29.376 34.8168 29.96 33.7336C30.544 32.6504 31.3632 31.8128 32.4184 31.2192C33.4728 30.6256 34.6968 30.3296 36.0912 30.3296C37.4856 30.3296 38.6624 30.636 39.6792 31.248C40.696 31.86 41.4872 32.708 42.0528 33.7904C42.6176 34.8736 42.9 36.1312 42.9 37.5624V38.5368C42.9 38.6696 42.792 38.7776 42.6592 38.7776H32.96C32.82 38.7776 32.7048 38.8976 32.7192 39.0368C32.8064 39.88 33.1584 40.5752 33.7744 41.1232C34.4528 41.7264 35.2808 42.0272 36.2608 42.0272C37.2408 42.0272 37.9936 41.8104 38.4648 41.3776C38.8696 41.0048 39.1912 40.5976 39.4296 40.1544C39.4928 40.036 39.636 39.9872 39.7544 40.0496L42.2272 41.3464C42.348 41.4096 42.3952 41.5616 42.3256 41.6784C42.0712 42.108 41.7304 42.568 41.304 43.0584C40.8048 43.6328 40.1408 44.1224 39.312 44.5272C38.4832 44.932 37.428 45.1344 36.1472 45.1344V45.1328ZM33.024 36.12H39.008C39.1608 36.12 39.2712 35.98 39.2448 35.8296C39.1248 35.1536 38.8128 34.6008 38.3088 34.1704C37.7344 33.6808 36.9856 33.436 36.0624 33.436C35.1392 33.436 34.3392 33.6808 33.7736 34.1704C33.2808 34.5976 32.9528 35.1456 32.7896 35.816C32.752 35.9696 32.8648 36.12 33.0232 36.12H33.024Z" fill="white"/>
<path d="M35.1223 54.1779C35.6999 53.0571 36.4847 52.1947 37.4767 51.5907C38.4679 50.9875 39.5759 50.6851 40.8007 50.6851C41.8703 50.6851 42.8055 50.9011 43.6079 51.3315C44.2103 51.6555 44.7223 52.0427 45.1447 52.4931C45.2855 52.6427 45.5351 52.5507 45.5351 52.3451V51.1411C45.5351 51.0179 45.6351 50.9179 45.7583 50.9179H48.9591C49.0823 50.9179 49.1823 51.0179 49.1823 51.1411V65.0259C49.1823 65.1491 49.0823 65.2491 48.9591 65.2491H45.7583C45.6351 65.2491 45.5351 65.1491 45.5351 65.0259V63.7931C45.5351 63.5923 45.2855 63.4891 45.1511 63.6387C44.7359 64.0987 44.2215 64.4931 43.6079 64.8227C42.7887 65.2627 41.8447 65.4827 40.7751 65.4827C39.5679 65.4827 38.4687 65.1723 37.4767 64.5515C36.4847 63.9307 35.6999 63.0555 35.1223 61.9259C34.5439 60.7963 34.2559 59.4987 34.2559 58.0323C34.2559 56.5659 34.5447 55.2995 35.1223 54.1779ZM45.0175 55.8211C44.6727 55.1915 44.2063 54.7091 43.6207 54.3723C43.0343 54.0363 42.4047 53.8675 41.7319 53.8675C41.0591 53.8675 40.4383 54.0315 39.8695 54.3587C39.3007 54.6867 38.8391 55.1651 38.4855 55.7947C38.1319 56.4243 37.9551 57.1707 37.9551 58.0323C37.9551 58.8939 38.1319 59.6491 38.4855 60.2955C38.8391 60.9419 39.3047 61.4379 39.8823 61.7827C40.4599 62.1283 41.0767 62.3003 41.7319 62.3003C42.3871 62.3003 43.0335 62.1323 43.6207 61.7955C44.2071 61.4595 44.6727 60.9763 45.0175 60.3467C45.3623 59.7171 45.5351 58.9627 45.5351 58.0835C45.5351 57.2043 45.3623 56.4499 45.0175 55.8203V55.8211Z" fill="white"/>
<path d="M20.5847 65.4064C20.3871 65.4064 18.2839 65.4016 18.0927 65.3928C15.8999 65.2912 14.1415 64.6088 12.8159 63.344C11.3743 61.9696 10.6543 60.0016 10.6543 57.4416V54.3336C10.6543 51.7736 11.3751 49.8064 12.8159 48.4312C14.1287 47.1792 15.8663 46.4968 18.0287 46.3856C18.2399 46.3744 20.3655 46.3696 20.5847 46.3696C23.0311 46.3696 24.9223 47.0384 26.2591 48.3752C27.5959 49.712 28.2647 51.5472 28.2647 53.8792V54.0496H24.5671V53.7656C24.5671 52.5896 24.2399 51.6232 23.5855 50.864C22.9311 50.1056 21.9311 49.7264 20.5847 49.7264C20.4279 49.7264 18.3655 49.732 18.2167 49.7432C17.1055 49.828 16.2151 50.2304 15.5463 50.9496C14.7879 51.7648 14.4087 52.8744 14.4087 54.2776V57.4992C14.4087 58.884 14.7879 59.988 15.5463 60.8128C16.2255 61.552 17.1335 61.96 18.2695 62.0368C18.4015 62.0456 20.4463 62.0504 20.5847 62.0504C21.9311 62.0504 22.9311 61.6664 23.5855 60.8984C24.2399 60.1304 24.5671 59.168 24.5671 58.0112V57.4992H28.2647V57.8976C28.2647 60.2304 27.5959 62.0648 26.2591 63.4016C24.9223 64.7384 23.0303 65.4072 20.5847 65.4072V65.4064Z" fill="white"/>
<path d="M10.3633 44.8792V25.188C10.3633 25.016 10.5033 24.876 10.6753 24.876H17.8753C18.0185 24.876 18.1441 24.9736 18.1777 25.1136L22.3561 42.0704C22.3905 42.2096 22.5153 42.308 22.6585 42.308C22.8305 42.308 22.9705 42.168 22.9705 41.996V24.8768H26.8801C26.9393 24.8768 26.9881 24.9248 26.9881 24.9848V44.5688C26.9881 44.7408 26.8481 44.8808 26.6761 44.8808H19.4761C19.3329 44.8808 19.2073 44.7832 19.1737 44.6432L14.9953 27.6864C14.9609 27.5472 14.8361 27.4488 14.6929 27.4488C14.5209 27.4488 14.3809 27.5888 14.3809 27.7608V44.88H10.3641L10.3633 44.8792Z" fill="white"/>
</svg>
